<svg version="1" xmlns="http://www.w3.org/2000/svg" width="933.333" height="933.333"
     viewBox="0 0 700.000000 700.000000">
    <path d="M334 9C234 19.4 133.6 86.3 75.6 181.2 31 254.3 11.8 342 24 416.7c6.5 39.8 21.7 75.6 45.9 107.8 18 24 42.6 47.9 70.1 68.2 82.3 60.8 208.7 102.8 297.5 98.9 67.1-3 117.8-24.3 160.1-67.2 62.3-63.2 92-155.7 78.8-245.4-9.2-62.9-39.4-134.3-88.1-208.2-62.1-94.5-132-149.3-204.4-160.2-12.8-2-38.5-2.8-49.9-1.6zm137.5 146.2c.2 1.3 2.8 18.4 5.6 38.2 5.7 39.4 5.7 37.4-1.3 37.8-2.1.1-4.5.2-5.4.2-1.1.1-2.4-2.2-4.4-7.4-8-21.9-17.2-33.9-29-37.8-14.6-4.8-27.3-4.8-65.8-.2-57.4 6.8-72.5 9-75.6 10.8-3.7 2.2-5.6 5.5-5.6 10.2 0 3.3 14.9 127.2 15.4 127.7.1.2 7.2-.6 15.7-1.7 8.5-1 28.5-3.5 44.4-5.5 30.6-3.8 41.1-5.8 50.6-10.1 13-5.9 19.1-18.1 20.8-41.8l.6-9.1 5.9-.7c3.3-.4 6.1-.7 6.2-.5.6.6 15.4 125 14.9 125.5-.3.3-3.1.7-6.3 1l-5.7.3-2.8-8.9c-3.3-10.5-8.1-20.5-12.6-26.1-6.2-7.8-20.9-12-37.6-10.6-10.6.9-90.7 10.5-91.2 10.9-.5.5 14.8 122.5 16.2 129.9 2.4 11.9 5.3 18.7 9.9 23.3 5.7 5.8 11.7 7.4 29.3 8.1l14.1.6.7 4.4c.3 2.5.5 4.6.3 4.8-.4.4-8.7 1.5-70.3 9-20.3 2.5-46.8 5.7-58.7 7.2-12 1.4-22 2.5-22.2 2.2-.2-.2-.7-2.5-1.1-5l-.7-4.5 9.4-2.3c11.4-2.8 21.2-7.2 25.5-11.3 5.3-5.2 6.8-11.2 6.7-27.3 0-11.7-2.6-34.5-15.2-137-8.4-67.7-15.9-126.4-16.8-130.5-5.2-24.1-11.7-29.1-39-30.6l-12.2-.7-.6-4.5c-.3-2.5-.4-4.7-.3-4.9.2-.2 11.6-1.7 25.3-3.4 13.7-1.7 76.9-9.5 140.4-17.4 63.5-7.8 117-14.3 118.7-14.4 2.6-.1 3.4.3 3.8 2.1z"/>
</svg>
