<svg version="1" xmlns="http://www.w3.org/2000/svg" width="933.333" height="933.333" viewBox="0 0 700.000000 700.000000"><path d="M332.5 8.7c-10.1 1-30.2 4.7-42.3 7.8-66.6 17.5-134.3 61.7-182.3 119C35.4 222.2 3.9 341.4 28 438.1c18 72 70.9 134.7 154.1 182.4 61.6 35.5 134.7 60.4 202.4 69.2 19.6 2.5 65 2.5 81.8 0 42.6-6.4 75.1-19.4 106.2-42.6 13.5-10.1 37-33.8 48.1-48.6 22.2-29.6 38.4-62.3 48.3-97.5 17.1-60.6 14.3-121.8-8.6-189-21.6-63.5-66.3-141.6-113.1-197.5-10.8-12.9-42-43.7-53.7-53-36.9-29.5-75.2-46.9-114.2-52-10.4-1.4-36-1.8-46.8-.8zM471 153.9c0 .5 2.5 17.7 5.5 38.2 3 20.5 5.3 37.5 5.1 37.6-.1.2-3.1.4-6.5.5l-6.3.3-2.8-7.6c-3.8-10.5-10.2-22.5-14.9-27.9-4.2-5-11.4-8.9-20.1-11.1-9-2.3-34-1.6-59 1.5-77 9.6-75.1 9.3-79 12.4-4.1 3.3-4.1 7.1.5 45 9.7 79.2 11.3 91.3 11.8 91.9 1 .9 85.1-9.6 95.2-11.9 10.2-2.3 19.5-6.2 24-10.1 6.7-5.6 10.8-17.2 12.5-34.8.5-5.6 1.2-10.4 1.4-10.6.2-.2 2.8-.7 5.7-1l5.4-.5 7.6 62.3c4.2 34.3 7.6 62.5 7.5 62.5 0 .1-2.6.5-5.7.8l-5.7.7-2.7-8.3c-6.6-20-14.3-31.1-24.3-34.8-7.5-2.9-20.6-3.6-35.7-2-22.6 2.3-81.6 9.8-82.2 10.4-.6.5 10.8 96.9 14.4 121.6 3.2 22.5 8.4 32.7 18.8 36.9 5.2 2.2 7.9 2.5 21.3 2.9l15.2.4v3.3c0 1.8.2 3.9.5 4.7.4 1-4.4 1.9-22.2 4-39.8 4.8-120.6 14.8-125 15.4l-4.2.6-.3-4.8-.3-4.8 10.7-2.7c19.1-4.8 27.3-11 29.9-22.3 2.4-11 .6-30.2-15-156.3-8.3-67.1-15.5-124.3-16.1-127-1.9-8.4-4.1-14.7-7.2-19.5-5.1-8.1-16-11.8-34.9-11.8-9.5 0-9.9-.3-9.9-6.4v-3.2l58.8-7.3c32.3-4 96.1-11.9 141.7-17.5 93.9-11.7 86.5-10.9 86.5-9.7z"/></svg>